<?xml version="1.0" standalone="no"?>
<!DOCTYPE svg PUBLIC "-//W3C//DTD SVG 20010904//EN"
 "http://www.w3.org/TR/2001/REC-SVG-20010904/DTD/svg10.dtd">
<svg version="1.0" xmlns="http://www.w3.org/2000/svg"
 width="300.000000pt" height="318.000000pt" viewBox="0 0 300.000000 318.000000"
 preserveAspectRatio="xMidYMid meet">
<metadata>
Created by potrace 1.10, written by Peter Selinger 2001-2011
</metadata>
<g transform="translate(0.000000,318.000000) scale(0.100000,-0.100000)"
fill="#000000" stroke="none">
<path d="M1374 2992 c-7 -4 -15 -45 -19 -92 -8 -109 -12 -120 -37 -120 -12 0
-54 -16 -95 -36 l-74 -35 -75 65 c-52 46 -80 64 -90 58 -35 -19 -204 -195
-204 -212 0 -15 30 -61 60 -90 3 -3 18 -19 33 -37 l29 -31 -35 -73 c-20 -41
-37 -85 -39 -99 -3 -24 -7 -25 -93 -31 -134 -10 -125 3 -125 -164 0 -120 3
-145 16 -156 11 -9 52 -16 107 -19 l89 -5 17 -55 c20 -62 38 -100 49 -100 4 0
23 14 42 31 19 18 52 43 73 57 27 18 36 30 31 41 -19 47 -44 161 -44 205 1
210 141 410 343 490 273 108 589 -42 693 -331 25 -68 25 -272 1 -327 -9 -21
-17 -42 -17 -47 0 -4 28 -29 63 -56 34 -26 64 -51 65 -55 14 -32 48 25 77 130
6 20 13 22 78 23 40 1 78 1 85 0 8 -1 23 5 33 15 17 15 19 32 19 160 0 88 -4
145 -10 149 -6 4 -53 9 -105 12 l-95 6 -11 41 c-6 23 -24 67 -40 100 l-29 58
51 56 c72 78 83 97 70 119 -5 10 -52 60 -104 111 -73 71 -99 91 -114 85 -16
-6 -54 -37 -121 -101 l-25 -24 -70 33 c-39 18 -85 35 -101 39 l-31 6 -5 94
c-3 52 -9 101 -13 108 -9 13 -283 18 -303 4z m273 -23 c6 -6 14 -48 18 -94 7
-82 9 -86 40 -105 18 -11 40 -20 49 -20 9 0 16 -4 16 -9 0 -4 27 -18 60 -30
69 -25 72 -25 156 49 59 51 62 52 107 17 9 -8 17 -19 17 -26 0 -6 3 -10 8 -9
11 3 97 -81 94 -92 -1 -6 2 -10 8 -10 5 0 10 -9 10 -20 0 -11 -5 -20 -11 -20
-5 0 -8 -4 -5 -8 3 -5 -11 -26 -30 -48 -55 -61 -65 -91 -45 -133 9 -20 18 -38
21 -41 3 -3 12 -25 20 -49 25 -78 38 -87 127 -90 43 -1 83 -7 88 -12 15 -15
20 -238 5 -253 -6 -6 -49 -16 -96 -22 -91 -13 -114 -24 -114 -59 0 -12 -7 -28
-15 -35 -8 -7 -12 -16 -9 -21 3 -5 1 -9 -5 -9 -5 0 -17 -3 -27 -7 -13 -5 -16
-3 -11 10 4 11 2 14 -8 11 -8 -3 -28 7 -44 23 l-30 28 19 74 c25 94 25 148 0
247 -29 115 -68 189 -137 260 -13 13 -23 29 -23 35 0 7 -3 10 -6 6 -3 -3 -15
3 -26 13 -29 27 -148 88 -205 105 -57 18 -209 20 -267 4 -22 -6 -59 -19 -81
-29 -22 -9 -55 -23 -72 -31 -18 -8 -33 -17 -33 -20 0 -4 -17 -18 -39 -32 -47
-31 -124 -130 -140 -180 -7 -21 -16 -37 -20 -37 -13 0 -43 -147 -42 -207 0
-32 7 -93 16 -136 l15 -78 -28 -25 c-15 -13 -39 -31 -54 -39 -23 -13 -27 -13
-34 3 -4 9 -8 22 -9 27 -2 22 -36 75 -54 84 -10 6 -52 13 -92 17 -41 3 -78 9
-82 14 -12 10 -12 249 -1 260 5 5 44 11 87 12 42 2 77 6 77 11 0 4 5 7 11 7
15 0 38 31 39 51 0 9 14 46 31 83 33 70 32 87 -4 126 -58 64 -78 98 -71 124 3
14 9 24 13 21 4 -2 14 6 22 17 8 12 23 28 33 37 11 9 37 33 57 54 21 20 45 37
53 37 15 0 49 -26 101 -76 33 -32 58 -36 106 -18 24 10 46 21 49 24 3 4 27 15
53 26 59 23 77 56 77 136 0 34 4 58 11 58 5 0 8 4 4 9 -7 13 20 16 140 18 55
1 105 -3 112 -8z"/>
<path d="M1522 2367 l-82 -42 2 -377 c2 -246 -1 -379 -7 -381 -5 -2 -22 0 -37
6 l-28 9 0 322 c0 178 -2 325 -5 328 -3 2 -42 -14 -87 -37 l-83 -42 0 -231
c-1 -128 2 -232 6 -232 15 0 19 54 19 247 l0 203 51 26 c28 14 57 23 65 20 10
-4 13 -60 14 -288 1 -156 2 -290 2 -298 2 -60 108 -68 108 -7 0 10 3 16 8 14
4 -3 6 144 4 326 -3 311 1 407 15 393 3 -3 21 3 39 15 25 15 38 18 52 10 19
-10 19 -25 17 -382 -2 -349 -1 -373 17 -391 10 -10 26 -18 37 -18 40 0 44 21
47 257 1 164 5 228 14 233 9 6 9 9 -1 12 -17 6 56 28 94 28 l28 0 -4 -180 c-4
-192 1 -223 41 -228 16 -2 35 9 64 40 23 24 39 35 35 26 -4 -12 -1 -16 12 -15
19 1 76 -39 85 -61 3 -7 -18 -35 -47 -64 -70 -68 -82 -78 -95 -78 -7 0 -12 -4
-12 -9 0 -5 -13 -14 -30 -21 -16 -7 -30 -16 -30 -20 0 -18 -240 -86 -255 -72
-3 3 -5 1 -5 -4 0 -5 -28 -8 -62 -7 -109 3 -220 25 -278 55 -30 15 -60 28 -67
28 -6 0 -18 6 -25 13 -7 7 -32 26 -55 43 -24 17 -40 34 -36 37 3 4 1 7 -6 7
-6 0 -31 19 -54 41 -23 23 -37 39 -30 35 7 -4 9 1 6 13 -5 20 28 47 41 34 3
-3 6 2 6 11 0 10 6 16 12 14 7 -3 19 1 26 9 11 11 19 7 48 -22 48 -50 75 -46
29 4 -20 21 -42 47 -49 56 -12 16 -18 13 -76 -34 -35 -28 -68 -51 -72 -51 -38
0 71 -128 162 -190 112 -76 281 -130 406 -130 80 0 214 27 279 56 66 29 185
104 185 116 0 4 7 8 15 8 8 0 15 3 15 8 0 4 22 30 50 57 27 28 49 53 50 56 0
7 -151 122 -154 117 -28 -41 -82 -98 -92 -98 -12 0 -14 40 -14 225 0 124 -4
225 -9 225 -5 0 -24 -6 -42 -13 -19 -8 -55 -22 -81 -31 l-48 -18 -2 -251 c-3
-244 -4 -252 -23 -252 -20 0 -20 8 -23 418 -1 229 -6 417 -10 416 -4 0 -44
-19 -90 -42z"/>
<path d="M580 1072 c-34 -3 -36 -5 -53 -65 -10 -34 -23 -72 -28 -85 -5 -13 -9
-31 -9 -40 0 -9 -7 -30 -15 -47 l-16 -30 29 30 c16 17 27 34 25 38 -3 5 2 23
10 40 8 18 21 52 27 75 6 24 13 42 15 40 6 -5 -26 -122 -37 -136 -6 -7 -8 -15
-5 -19 4 -3 0 -15 -8 -27 -8 -11 -15 -32 -15 -46 0 -14 -7 -34 -15 -44 -13
-17 -15 -18 -15 -3 0 9 -6 16 -12 14 -7 -1 -12 3 -11 9 1 7 -2 25 -6 42 -6 19
-5 34 2 41 7 7 2 40 -19 111 l-29 100 -35 0 -35 0 -28 -93 c-15 -50 -28 -101
-27 -112 0 -12 -5 -26 -12 -33 -9 -9 -9 -12 0 -12 6 0 14 11 18 25 3 14 10 25
15 25 12 0 11 -13 -3 -47 -6 -15 -10 -32 -9 -36 0 -4 -3 -17 -9 -27 -9 -17
-14 -18 -30 -8 -10 7 -17 15 -14 19 2 4 -2 22 -10 40 -8 19 -17 50 -20 69 -7
34 -6 34 15 -10 34 -71 33 -30 -2 90 l-32 110 -39 0 c-28 0 -38 -4 -35 -12 3
-7 29 -86 59 -175 l53 -163 35 0 35 0 31 100 c28 89 30 103 18 126 -10 18 -11
31 -4 45 6 10 8 19 4 19 -3 0 -1 7 6 15 19 23 33 14 52 -33 17 -44 15 -88 -3
-60 -18 27 -9 -36 18 -124 l26 -88 36 0 36 0 58 177 c31 97 56 177 55 177 -2
1 -19 0 -38 -2z"/>
<path d="M763 1060 c-53 -27 -72 -73 -49 -118 20 -38 31 -47 99 -72 66 -25 86
-49 58 -74 -23 -21 -75 -20 -112 1 -28 17 -29 16 -49 -5 -11 -11 -20 -23 -20
-26 0 -2 15 -14 34 -25 39 -24 124 -30 168 -12 39 15 70 68 63 106 -7 40 -42
69 -114 96 -61 22 -80 42 -61 64 19 23 59 27 90 8 29 -17 30 -16 55 7 l25 24
-28 18 c-47 29 -110 33 -159 8z m-5 -70 c-1 -17 7 -39 18 -51 19 -21 19 -21
-8 -9 -26 12 -46 52 -28 58 5 2 6 10 3 18 -3 8 0 14 5 14 6 0 10 -14 10 -30z
m126 -111 c-3 -5 4 -9 15 -9 14 0 22 -7 23 -20 0 -11 1 -25 2 -32 1 -6 -4 -13
-9 -15 -6 -2 -11 7 -12 19 -1 13 -10 30 -20 38 -23 20 -28 41 -8 34 8 -4 12
-10 9 -15z"/>
<path d="M1785 1074 c-36 -9 -97 -58 -117 -94 -27 -50 -21 -143 12 -188 34
-46 93 -75 155 -75 186 0 258 236 101 333 -34 20 -112 33 -151 24z m25 -31
c-8 -3 -17 -9 -20 -13 -3 -5 -14 -10 -25 -12 -11 -1 -27 -16 -36 -32 -9 -17
-22 -32 -30 -35 -11 -3 -12 -1 -2 11 7 8 10 18 6 21 -3 4 1 7 10 7 10 0 16 5
15 12 -3 13 58 47 82 47 13 -1 13 -1 0 -6z m107 -65 c51 -52 37 -150 -27 -183
-102 -53 -208 53 -155 155 24 47 53 62 108 57 35 -3 56 -11 74 -29z m78 -82
c0 -34 -18 -39 -20 -6 -1 14 -5 36 -9 50 l-7 25 18 -21 c11 -12 19 -33 18 -48z
m-299 6 c-2 -15 -5 -36 -6 -47 -1 -16 -3 -15 -10 6 -9 31 -2 81 11 74 4 -3 6
-18 5 -33z m60 -116 c10 -8 16 -18 11 -22 -4 -4 -7 -2 -7 5 0 7 -4 10 -9 7 -5
-3 -12 1 -15 10 -3 8 -10 13 -15 10 -14 -9 -32 20 -25 38 6 15 9 14 24 -8 9
-15 25 -33 36 -40z m224 38 c0 -8 -4 -13 -8 -10 -5 3 -15 -4 -22 -15 -8 -10
-20 -19 -28 -19 -7 0 -11 -4 -8 -9 3 -5 -4 -11 -16 -14 -34 -9 -32 -1 5 22 18
11 39 32 47 45 14 26 30 26 30 0z"/>
<path d="M1225 895 l0 -175 39 0 38 0 -4 75 -3 75 77 0 78 0 0 -75 0 -75 38 0
37 0 0 175 0 175 -37 0 -38 0 0 -70 0 -70 -78 0 -78 0 4 70 4 70 -38 0 -39 0
0 -175z m273 3 c-1 -73 -3 -117 -5 -98 -3 19 -10 38 -16 42 -9 6 -9 8 1 8 7 0
2 11 -13 26 -18 17 -32 24 -48 20 -12 -3 -6 1 13 10 45 21 59 41 60 87 0 20 2
37 4 37 3 0 4 -60 4 -132z m-232 81 c1 -5 2 -16 3 -24 0 -8 10 -23 21 -33 l21
-19 -24 -29 c-14 -16 -27 -38 -30 -49 -2 -11 -5 25 -6 79 0 55 2 96 7 92 4 -4
8 -12 8 -17z"/>
<path d="M2145 895 l0 -175 38 0 38 0 -3 108 c-3 99 -4 107 -24 110 -16 2 -20
10 -20 40 1 20 6 45 12 55 9 16 13 14 41 -21 24 -29 29 -42 21 -55 -7 -14 1
-31 36 -78 25 -33 47 -61 50 -62 3 -1 29 30 57 68 39 54 47 71 35 73 -24 5
-20 17 19 59 26 29 35 34 35 20 0 -10 4 -16 9 -13 10 7 6 -213 -5 -223 -3 -3
-5 15 -3 42 3 26 1 47 -3 47 -5 0 -8 12 -8 28 0 21 -2 24 -10 12 -5 -8 -10
-59 -10 -113 l0 -98 38 3 c20 2 36 6 35 11 -2 4 -3 81 -3 172 l0 165 -33 0
c-29 0 -39 -9 -91 -76 -32 -41 -56 -77 -55 -78 8 -7 49 14 49 24 0 5 5 10 11
10 6 0 0 -13 -13 -29 -13 -15 -25 -27 -27 -25 -2 2 -10 -4 -17 -14 -12 -16
-14 -16 -33 5 -12 13 -17 25 -11 28 6 3 10 1 10 -5 0 -6 5 -8 10 -5 13 8 -2
35 -59 107 -40 51 -50 58 -81 58 l-35 0 0 -175z"/>
<path d="M2667 898 l2 -173 131 -3 130 -3 0 37 0 36 -95 -4 -95 -3 0 27 c0 14
-3 33 -6 42 -5 14 5 16 75 16 l81 0 0 30 0 30 -77 0 -78 0 1 37 1 38 97 -4 96
-3 0 36 0 36 -132 0 -133 0 2 -172z m83 138 c0 -3 -11 -17 -24 -31 -19 -21
-25 -23 -30 -10 -9 24 4 45 30 45 13 0 24 -2 24 -4z m-33 -88 c-2 -7 10 -21
26 -31 l30 -19 -31 -15 c-24 -12 -31 -21 -30 -42 1 -46 9 -61 36 -76 l27 -14
-37 -1 c-29 0 -38 4 -39 18 -11 140 -7 192 12 192 6 0 9 -6 6 -12z"/>
<path d="M1268 473 c-50 -4 -58 -7 -58 -24 0 -15 5 -18 24 -13 23 6 24 4 31
-71 6 -62 10 -75 24 -73 13 3 15 15 13 76 l-4 72 27 0 c19 0 26 4 23 17 -4 19
-6 20 -80 16z"/>
<path d="M1486 393 l1 -88 67 -3 c62 -3 66 -1 66 18 0 19 -5 21 -47 19 -43 -3
-48 -1 -51 19 -3 20 1 22 38 22 29 0 40 4 37 13 -2 7 -19 12 -41 11 -32 -1
-36 2 -36 23 0 23 3 24 47 22 39 -3 48 0 51 14 3 15 -6 17 -65 17 l-68 0 1
-87z"/>
<path d="M1686 468 c-3 -7 -6 -48 -8 -90 -3 -67 -1 -77 14 -82 16 -4 18 3 18
55 0 48 3 57 15 53 8 -4 15 -10 15 -15 0 -20 56 -99 71 -99 12 0 18 14 23 61
10 103 8 119 -14 119 -16 0 -19 -8 -22 -57 l-3 -58 -40 59 c-41 62 -62 78 -69
54z"/>
<path d="M1916 442 c-2 -9 -8 -49 -11 -88 l-7 -71 39 -6 c60 -10 90 -8 96 7 4
10 -8 15 -44 20 -41 6 -49 10 -49 27 0 18 5 20 38 17 27 -2 37 1 37 12 0 9
-12 15 -34 17 -41 4 -45 7 -37 29 5 13 15 15 56 9 41 -6 50 -4 50 9 0 10 -13
17 -37 21 -21 3 -50 8 -65 10 -19 3 -28 -1 -32 -13z"/>
<path d="M1023 418 c3 -18 9 -59 13 -91 5 -46 10 -57 23 -55 12 2 15 12 13 36
-3 26 0 32 15 32 11 0 29 -13 41 -30 23 -31 52 -40 52 -17 0 8 -9 22 -20 32
-17 15 -18 20 -6 37 14 20 11 53 -7 76 -6 7 -33 12 -69 12 l-60 0 5 -32z m104
-14 c7 -19 -5 -31 -37 -36 -21 -2 -26 2 -28 25 -3 24 0 27 28 27 19 0 33 -6
37 -16z"/>
<path d="M2102 352 c-15 -97 -15 -102 2 -102 15 0 26 21 26 50 0 33 37 12 44
-25 6 -30 31 -53 44 -40 4 3 1 20 -6 37 -10 27 -9 33 7 44 45 32 26 82 -38
103 -63 20 -65 18 -79 -67z m96 26 c17 -17 15 -35 -4 -42 -28 -11 -54 3 -54
30 0 18 5 24 23 24 13 0 28 -5 35 -12z"/>
<path d="M857 413 c-3 -5 -8 -28 -12 -53 -14 -86 -16 -95 -21 -112 -3 -10 -2
-18 3 -18 16 0 31 15 34 35 6 29 66 39 80 14 9 -17 49 -28 49 -13 0 4 -21 40
-46 80 -30 48 -52 74 -64 74 -11 0 -21 -3 -23 -7z m63 -84 c0 -8 -42 -20 -48
-14 -2 2 -1 18 3 36 l7 32 19 -24 c10 -13 19 -27 19 -30z"/>
<path d="M685 346 c-10 -26 -22 -46 -27 -46 -5 0 -21 11 -36 25 -32 30 -78 35
-67 8 4 -10 14 -48 23 -85 13 -53 20 -68 34 -68 21 0 22 12 3 65 -18 49 -18
45 -2 45 8 0 22 -9 32 -20 25 -28 32 -25 45 15 6 19 15 35 20 35 5 0 14 -24
20 -54 9 -46 14 -53 30 -49 11 3 20 6 20 7 0 0 -11 37 -24 81 -28 96 -46 107
-71 41z"/>
<path d="M2316 345 c-49 -45 -24 -135 43 -150 38 -8 78 3 84 23 3 10 8 24 11
33 5 12 -1 19 -25 28 -31 11 -49 8 -49 -8 0 -5 10 -11 22 -15 21 -5 22 -7 6
-22 -23 -24 -64 -11 -76 23 -21 63 34 105 87 65 19 -14 32 -17 42 -11 11 8 8
14 -16 34 -40 33 -93 33 -129 0z"/>
<path d="M2536 283 c14 -43 15 -82 3 -122 -2 -8 3 -16 13 -18 11 -3 20 6 28
29 6 18 31 49 55 68 49 39 52 45 28 55 -13 4 -27 -3 -46 -25 -32 -36 -44 -31
-49 20 -2 27 -8 36 -25 38 -21 3 -21 3 -7 -45z"/>
<path d="M418 305 c-15 -8 -30 -25 -34 -37 -9 -29 27 -58 70 -58 41 0 48 -7
35 -32 -8 -15 -18 -19 -39 -14 -19 3 -30 1 -33 -8 -8 -19 2 -26 33 -26 57 0
103 68 67 98 -7 6 -30 12 -52 14 -49 4 -56 30 -10 38 18 3 30 11 30 20 0 20
-34 23 -67 5z"/>
</g>
</svg>
